<svg width="32" height="22" viewBox="0 0 32 22" fill="none" xmlns="http://www.w3.org/2000/svg">
<path fill-rule="evenodd" clip-rule="evenodd" d="M27.215 4.47362H31.1247L20.1623 21.7986L17.556 17.2757L14.5663 21.7986L12.8797 19.4987L17.556 12.1394L20.0857 16.0492L27.215 4.47362Z" fill="white"/>
<path fill-rule="evenodd" clip-rule="evenodd" d="M19.23 11.227L23.9669 4.47585H20.3809L18.8979 7.02148C18.0035 8.58298 18.6725 9.92098 19.23 11.227Z" fill="white"/>
<path fill-rule="evenodd" clip-rule="evenodd" d="M15.8325 11.0323L17.0409 9.20137C15.669 3.67313 12.5604 0.00502799 7.77594 0.209671C2.22543 0.580203 -0.63209 6.46198 1.32527 10.6541L7.06003 21.1396C7.54189 21.94 8.45411 21.979 8.9358 21.2114L11.4515 16.3802L10.479 14.4862L8.08222 19.4585L3.11692 10.0908C1.41604 6.8303 4.12347 2.43423 7.77594 2.15293C9.91618 1.86466 12.7453 3.93063 13.9207 7.0618L15.8325 11.0321V11.0323Z" fill="white"/>
<path d="M8.33376 10.5186C9.45233 10.5186 10.3591 9.61183 10.3591 8.49326C10.3591 7.37469 9.45233 6.46791 8.33376 6.46791C7.21519 6.46791 6.30841 7.37469 6.30841 8.49326C6.30841 9.61183 7.21519 10.5186 8.33376 10.5186Z" fill="white"/>
</svg>
