<svg width="20" height="21" viewBox="0 0 20 21" fill="none" xmlns="http://www.w3.org/2000/svg">
<path d="M10 11.2168C11.3807 11.2168 12.5 10.0975 12.5 8.7168C12.5 7.33608 11.3807 6.2168 10 6.2168C8.61929 6.2168 7.5 7.33608 7.5 8.7168C7.5 10.0975 8.61929 11.2168 10 11.2168Z" stroke="white" stroke-width="2" stroke-linecap="round" stroke-linejoin="round"/>
<path d="M10 2.05005C8.23189 2.05005 6.5362 2.75243 5.28596 4.00267C4.03571 5.25291 3.33333 6.94861 3.33333 8.71672C3.33333 10.2934 3.66833 11.325 4.58333 12.4667L10 18.7167L15.4167 12.4667C16.3317 11.325 16.6667 10.2934 16.6667 8.71672C16.6667 6.94861 15.9643 5.25291 14.714 4.00267C13.4638 2.75243 11.7681 2.05005 10 2.05005Z" stroke="white" stroke-width="2" stroke-linecap="round" stroke-linejoin="round"/>
</svg>
