<svg width="161" height="35" viewBox="0 0 161 35" fill="none" xmlns="http://www.w3.org/2000/svg">
<path d="M18.7055 20.08H20.3555L17.8055 28H0.495508L0.975508 26.35C3.25551 26.08 3.85551 25.48 4.57551 22.78L7.33551 12.25C8.08551 9.4 7.69551 8.89 5.59551 8.65L6.07551 7H17.6855L17.1155 8.65C14.2955 8.89 13.6655 9.43 12.8855 12.28L9.46551 25.24C9.31551 25.75 9.37551 26.2 10.1855 26.2H12.0155C14.9255 26.2 16.6355 24.61 18.7055 20.08ZM23.7244 28.36C22.3744 28.36 21.6544 27.73 21.6544 26.47C21.6544 25.99 21.7744 25.42 21.9844 24.76L24.8944 15.85C25.0444 15.4 24.9244 15.19 24.3844 15.19H22.8544L23.2444 13.81L29.9344 12.34L30.7744 13.09L27.5344 23.38C27.3844 23.83 27.5044 24.07 27.8044 24.07C28.5244 24.07 30.7144 21.82 32.4844 19.3L34.2244 12.7H39.4444L36.5644 23.5C36.4744 23.86 36.5344 24.07 36.8644 24.07C37.2244 24.07 38.0044 23.68 39.1144 21.64L40.0744 22.21C38.6644 25.54 35.6344 28.36 32.8744 28.36C31.7944 28.36 30.7144 27.94 30.7144 26.02C30.7144 24.28 32.1544 21.91 33.4144 20.08L33.0544 19.84C29.6944 24.64 26.9644 28.36 23.7244 28.36ZM46.2877 28.39C44.1877 28.39 41.7577 27.43 40.3477 25.69L42.2377 22.15H43.0777C44.2177 24.37 46.2577 26.74 48.5677 26.77C49.0177 26.44 49.2877 26.05 49.2877 25.6C49.2877 25.21 49.0777 24.88 47.9077 23.71L45.1777 21.04C43.9777 19.84 43.2877 18.55 43.2877 17.17C43.2877 14.86 45.4477 12.34 49.0477 12.34C50.9977 12.34 53.5777 13.09 55.2877 14.59L53.1877 17.86H52.3177C51.4777 15.64 49.6777 13.63 47.6677 13.6C47.2177 13.81 47.0677 14.08 47.0677 14.5C47.0677 14.98 47.2777 15.34 48.5677 16.57L51.0877 19C52.4677 20.32 53.0677 21.34 53.0677 22.69C53.0677 25.69 49.8277 28.39 46.2877 28.39ZM66.7521 28.36C65.7021 28.36 64.4421 27.82 64.4421 26.17C64.4421 24.91 65.1321 23.08 65.8521 21.13C66.4221 19.57 67.1421 17.65 67.1421 17.08C67.1421 16.75 66.9021 16.63 66.6621 16.63C65.6421 16.63 63.8121 18.76 61.6521 21.67L59.9421 28H54.6021L59.6721 9.07C59.8821 8.26 59.5521 8.05 59.1321 8.05H57.7521L58.1721 6.7L64.9821 5.2L65.7921 5.92L62.8821 16.69C62.6421 17.65 61.7421 19.24 60.5721 20.83L60.9621 21.07C63.5421 17.29 66.9321 12.34 70.7421 12.34C71.9721 12.34 73.1721 12.85 73.1721 14.35C73.1721 15.49 72.4521 17.32 71.7321 19.36C71.2521 20.71 70.3521 23.26 70.3521 23.77C70.3521 23.95 70.4421 24.07 70.6821 24.07C71.0121 24.07 71.6721 23.83 72.9021 21.64L73.8321 22.21C71.7021 26.68 68.9721 28.36 66.7521 28.36ZM96.5447 17.89L96.1247 19.36C94.9247 19.36 94.4447 19.72 93.9047 21.82L92.7347 26.32C91.2647 27.52 88.9547 28.51 85.6247 28.51C81.3347 28.51 76.0247 26.89 76.0247 19.54C76.0247 15.34 78.9047 6.49 89.7047 6.49C92.4947 6.49 95.2847 7.03 96.7847 7.75L95.0447 14.05H93.4247C93.8747 10.72 92.4947 8.38 89.2547 8.38C83.8547 8.38 81.9047 14.95 81.9047 19.42C81.9047 22.81 83.0147 26.44 86.1947 26.44C86.9747 26.44 87.8147 26.23 88.4147 25.66L89.4047 21.76C89.8547 19.93 89.6147 19.42 88.2347 19.42H86.8847L87.3347 17.89H96.5447ZM103.746 24.07C104.046 24.07 104.706 23.68 105.936 21.64L106.896 22.21C105.066 25.9 102.096 28.36 99.6061 28.36C98.8261 28.36 97.5961 27.85 97.5961 26.2C97.5961 25.87 97.6561 25.48 97.7761 25.06L102.006 9.07C102.126 8.47 102.156 8.05 101.376 8.05H100.086L100.506 6.7L107.316 5.2L108.126 5.92L103.476 23.32C103.326 23.83 103.416 24.07 103.746 24.07ZM114.082 28.36C111.202 28.36 107.992 27.1 107.992 23.29C107.992 18.22 112.402 12.34 118.672 12.34C121.552 12.34 124.762 13.6 124.762 17.41C124.762 22.48 120.352 28.36 114.082 28.36ZM114.652 27.1C117.652 27.1 119.512 19.06 119.512 15.7C119.512 14.17 119.002 13.6 118.102 13.6C115.102 13.6 113.242 21.64 113.242 25C113.242 26.53 113.752 27.1 114.652 27.1ZM131.118 28.66L128.178 27.79L127.818 16.54C127.788 15.4 127.668 15.28 126.498 15.28L126.348 13.87L131.958 12.34L132.828 13.12L133.158 23.83C133.188 24.7 133.008 25.63 132.348 26.2L132.528 26.5C135.708 24.01 137.058 21.37 137.058 19C137.058 17.68 136.728 16.33 135.408 15.73L135.288 14.32L139.608 12.34C140.838 13.03 141.528 13.84 141.618 16.09L141.918 23.92C141.948 24.79 141.768 25.72 141.108 26.29L141.288 26.47C144.378 23.89 145.608 21.28 145.608 19.27C145.608 17.65 145.158 16.33 143.838 15.73L143.718 14.32L148.638 12.34C149.508 13.03 150.108 14.44 150.108 15.79C150.108 19.96 145.578 24.85 139.908 28.66L137.028 27.79L136.878 23.5C135.828 25.3 133.638 27.04 131.118 28.66Z" fill="#D36A91"/>
<rect x="151" y="17.5" width="10" height="10" rx="5" fill="#FFB7C5"/>
</svg>
