<svg width="19" height="19" viewBox="0 0 19 19" fill="none" xmlns="http://www.w3.org/2000/svg">
<path d="M13.3767 0.872559L14.1817 1.09006C15.1661 1.35646 16.0635 1.87631 16.7844 2.59776C17.5053 3.31921 18.0244 4.21704 18.29 5.20173L18.5067 6.00589L16.8983 6.44006L16.6808 5.63589C16.491 4.93254 16.1202 4.29123 15.6052 3.77595C15.0902 3.26067 14.4491 2.88942 13.7458 2.69923L12.9417 2.48089L13.3767 0.872559ZM0.833333 1.05006H7.98333L9.2225 6.62506L7.6725 8.17506C8.58386 9.59341 9.78977 10.799 11.2083 11.7101L12.7583 10.1609L18.3333 11.4001V18.5501H17.5C14.2919 18.5555 11.1512 17.6304 8.45833 15.8867C6.47269 14.6017 4.7817 12.9107 3.49667 10.9251C1.75302 8.23223 0.827863 5.09145 0.833333 1.88339V1.05006ZM2.5225 2.71673C2.66292 5.31665 3.48144 7.83454 4.89667 10.0201C6.0536 11.8075 7.57587 13.3298 9.36333 14.4867C11.5488 15.902 14.0667 16.7205 16.6667 16.8609V12.7367L13.2892 11.9867L11.4775 13.7992L10.925 13.4851C8.8272 12.2929 7.09045 10.5562 5.89833 8.45839L5.58417 7.90589L7.39667 6.09423L6.64667 2.71673H2.5225ZM12.615 3.68756L13.42 3.90506C13.9122 4.03826 14.3609 4.29818 14.7214 4.65891C15.0818 5.01963 15.3414 5.46855 15.4742 5.96089L15.6908 6.76506L14.0825 7.19922L13.865 6.39506C13.808 6.18404 13.6967 5.99166 13.5421 5.8371C13.3876 5.68255 13.1952 5.57122 12.9842 5.51423L12.18 5.29673L12.615 3.68756Z" fill="white"/>
</svg>
