<svg width="39" height="21" viewBox="0 0 39 21" fill="none" xmlns="http://www.w3.org/2000/svg">
<path d="M18.6447 20.0571C19.557 18.0571 20.5833 15.9143 21.7237 13.6286C22.9211 11.3429 24.2039 9.02857 25.5724 6.68571C26.9408 4.34286 28.2807 2.11429 29.5921 0H39C38.0307 2.22857 37.0614 4.6 36.0921 7.11429C35.1228 9.62857 34.182 12.0857 33.2697 14.4857C32.4145 16.8286 31.6162 19 30.875 21H18.9868L18.6447 20.0571ZM0 20.0571C0.912281 18.0571 1.9386 15.9143 3.07895 13.6286C4.27632 11.3429 5.55921 9.02857 6.92763 6.68571C8.29605 4.34286 9.63597 2.11429 10.9474 0H20.3553C19.614 1.71429 18.8728 3.48572 18.1316 5.31429C17.3904 7.14286 16.6776 9 15.9934 10.8857C15.3092 12.7143 14.625 14.4857 13.9408 16.2C13.3136 17.9143 12.7434 19.5143 12.2303 21H0.342105L0 20.0571Z" fill="#D36A91"/>
</svg>
