<svg width="24" height="25" viewBox="0 0 24 25" fill="none" xmlns="http://www.w3.org/2000/svg">
<path d="M6.33099 8.5H17.67C17.9584 8.49997 18.2433 8.56229 18.5053 8.6827C18.7674 8.80311 19.0003 8.97876 19.188 9.1976C19.3758 9.41645 19.5141 9.67331 19.5933 9.95059C19.6725 10.2279 19.6908 10.519 19.647 10.804L18.392 18.956C18.283 19.6644 17.924 20.3105 17.38 20.7771C16.8359 21.2438 16.1428 21.5002 15.426 21.5H8.57399C7.85739 21.5 7.16447 21.2434 6.62062 20.7768C6.07677 20.3102 5.71791 19.6643 5.60899 18.956L4.35399 10.804C4.31016 10.519 4.32848 10.2279 4.40769 9.95059C4.48691 9.67331 4.62515 9.41645 4.81293 9.1976C5.00072 8.97876 5.23361 8.80311 5.49563 8.6827C5.75766 8.56229 6.04262 8.49997 6.33099 8.5Z" stroke="white" stroke-width="2" stroke-linecap="round" stroke-linejoin="round"/>
<path d="M9 11.5V6.5C9 5.70435 9.31607 4.94129 9.87868 4.37868C10.4413 3.81607 11.2044 3.5 12 3.5C12.7956 3.5 13.5587 3.81607 14.1213 4.37868C14.6839 4.94129 15 5.70435 15 6.5V11.5" stroke="white" stroke-width="2" stroke-linecap="round" stroke-linejoin="round"/>
</svg>
