<svg width="21" height="20" viewBox="0 0 21 20" fill="none" xmlns="http://www.w3.org/2000/svg">
<path d="M10.417 5.99411C8.2002 5.99411 6.41113 7.78317 6.41113 9.99997C6.41113 12.2168 8.2002 14.0058 10.417 14.0058C12.6338 14.0058 14.4229 12.2168 14.4229 9.99997C14.4229 7.78317 12.6338 5.99411 10.417 5.99411ZM10.417 12.6035C8.9834 12.6035 7.81348 11.4336 7.81348 9.99997C7.81348 8.56638 8.9834 7.39645 10.417 7.39645C11.8506 7.39645 13.0205 8.56638 13.0205 9.99997C13.0205 11.4336 11.8506 12.6035 10.417 12.6035ZM14.5869 4.89645C14.0693 4.89645 13.6514 5.31442 13.6514 5.832C13.6514 6.34958 14.0693 6.76755 14.5869 6.76755C15.1045 6.76755 15.5225 6.35153 15.5225 5.832C15.5226 5.7091 15.4985 5.58738 15.4516 5.4738C15.4046 5.36023 15.3357 5.25703 15.2488 5.17013C15.1619 5.08322 15.0587 5.01432 14.9451 4.96736C14.8315 4.92039 14.7098 4.8963 14.5869 4.89645ZM18.2256 9.99997C18.2256 8.92185 18.2354 7.85349 18.1748 6.77731C18.1143 5.52731 17.8291 4.41794 16.915 3.50388C15.999 2.58786 14.8916 2.30466 13.6416 2.24411C12.5635 2.18356 11.4951 2.19333 10.4189 2.19333C9.34082 2.19333 8.27246 2.18356 7.19629 2.24411C5.94629 2.30466 4.83692 2.58981 3.92285 3.50388C3.00684 4.41989 2.72363 5.52731 2.66309 6.77731C2.60254 7.85544 2.61231 8.9238 2.61231 9.99997C2.61231 11.0761 2.60254 12.1465 2.66309 13.2226C2.72363 14.4726 3.00879 15.582 3.92285 16.4961C4.83887 17.4121 5.94629 17.6953 7.19629 17.7558C8.27442 17.8164 9.34277 17.8066 10.4189 17.8066C11.4971 17.8066 12.5654 17.8164 13.6416 17.7558C14.8916 17.6953 16.001 17.4101 16.915 16.4961C17.8311 15.58 18.1143 14.4726 18.1748 13.2226C18.2373 12.1465 18.2256 11.0781 18.2256 9.99997ZM16.5068 14.6054C16.3643 14.9609 16.1924 15.2265 15.917 15.5C15.6416 15.7754 15.3779 15.9472 15.0225 16.0898C13.9951 16.498 11.5557 16.4062 10.417 16.4062C9.27832 16.4062 6.83692 16.498 5.80957 16.0918C5.4541 15.9492 5.18848 15.7773 4.91504 15.5019C4.63965 15.2265 4.46777 14.9629 4.3252 14.6074C3.91895 13.5781 4.01074 11.1386 4.01074 9.99997C4.01074 8.8613 3.91895 6.41989 4.3252 5.39255C4.46777 5.03708 4.63965 4.77146 4.91504 4.49802C5.19043 4.22458 5.4541 4.05075 5.80957 3.90817C6.83692 3.50192 9.27832 3.59372 10.417 3.59372C11.5557 3.59372 13.9971 3.50192 15.0244 3.90817C15.3799 4.05075 15.6455 4.22263 15.9189 4.49802C16.1943 4.77341 16.3662 5.03708 16.5088 5.39255C16.915 6.41989 16.8232 8.8613 16.8232 9.99997C16.8232 11.1386 16.915 13.5781 16.5068 14.6054Z" fill="white"/>
<path d="M10.417 5.99411C8.2002 5.99411 6.41113 7.78317 6.41113 9.99997C6.41113 12.2168 8.2002 14.0058 10.417 14.0058C12.6338 14.0058 14.4229 12.2168 14.4229 9.99997C14.4229 7.78317 12.6338 5.99411 10.417 5.99411ZM10.417 12.6035C8.9834 12.6035 7.81348 11.4336 7.81348 9.99997C7.81348 8.56638 8.9834 7.39645 10.417 7.39645C11.8506 7.39645 13.0205 8.56638 13.0205 9.99997C13.0205 11.4336 11.8506 12.6035 10.417 12.6035ZM14.5869 4.89645C14.0693 4.89645 13.6514 5.31442 13.6514 5.832C13.6514 6.34958 14.0693 6.76755 14.5869 6.76755C15.1045 6.76755 15.5225 6.35153 15.5225 5.832C15.5226 5.7091 15.4985 5.58738 15.4516 5.4738C15.4046 5.36023 15.3357 5.25703 15.2488 5.17013C15.1619 5.08322 15.0587 5.01432 14.9451 4.96736C14.8315 4.92039 14.7098 4.8963 14.5869 4.89645ZM18.2256 9.99997C18.2256 8.92185 18.2354 7.85349 18.1748 6.77731C18.1143 5.52731 17.8291 4.41794 16.915 3.50388C15.999 2.58786 14.8916 2.30466 13.6416 2.24411C12.5635 2.18356 11.4951 2.19333 10.4189 2.19333C9.34082 2.19333 8.27246 2.18356 7.19629 2.24411C5.94629 2.30466 4.83692 2.58981 3.92285 3.50388C3.00684 4.41989 2.72363 5.52731 2.66309 6.77731C2.60254 7.85544 2.61231 8.9238 2.61231 9.99997C2.61231 11.0761 2.60254 12.1465 2.66309 13.2226C2.72363 14.4726 3.00879 15.582 3.92285 16.4961C4.83887 17.4121 5.94629 17.6953 7.19629 17.7558C8.27442 17.8164 9.34277 17.8066 10.4189 17.8066C11.4971 17.8066 12.5654 17.8164 13.6416 17.7558C14.8916 17.6953 16.001 17.4101 16.915 16.4961C17.8311 15.58 18.1143 14.4726 18.1748 13.2226C18.2373 12.1465 18.2256 11.0781 18.2256 9.99997ZM16.5068 14.6054C16.3643 14.9609 16.1924 15.2265 15.917 15.5C15.6416 15.7754 15.3779 15.9472 15.0225 16.0898C13.9951 16.498 11.5557 16.4062 10.417 16.4062C9.27832 16.4062 6.83692 16.498 5.80957 16.0918C5.4541 15.9492 5.18848 15.7773 4.91504 15.5019C4.63965 15.2265 4.46777 14.9629 4.3252 14.6074C3.91895 13.5781 4.01074 11.1386 4.01074 9.99997C4.01074 8.8613 3.91895 6.41989 4.3252 5.39255C4.46777 5.03708 4.63965 4.77146 4.91504 4.49802C5.19043 4.22458 5.4541 4.05075 5.80957 3.90817C6.83692 3.50192 9.27832 3.59372 10.417 3.59372C11.5557 3.59372 13.9971 3.50192 15.0244 3.90817C15.3799 4.05075 15.6455 4.22263 15.9189 4.49802C16.1943 4.77341 16.3662 5.03708 16.5088 5.39255C16.915 6.41989 16.8232 8.8613 16.8232 9.99997C16.8232 11.1386 16.915 13.5781 16.5068 14.6054Z" fill="white"/>
</svg>
