<svg width="32" height="32" viewBox="0 0 32 32" fill="none" xmlns="http://www.w3.org/2000/svg">
<path d="M16.0917 0.917236C7.71271 0.917236 0.920166 7.70978 0.920166 16.0888C0.920166 24.4678 7.71271 31.2604 16.0917 31.2604C24.4708 31.2604 31.2633 24.4678 31.2633 16.0888C31.2536 7.71382 24.4667 0.92699 16.0917 0.917236Z" fill="#FAC6A1"/>
<path d="M24.8495 11.2852L16.1954 23.0292C15.989 23.3031 15.6813 23.4825 15.3413 23.5272C15.0013 23.5719 14.6576 23.4781 14.3875 23.2669L8.2076 18.3261C7.66226 17.8896 7.57396 17.0938 8.01037 16.5485C8.44678 16.0031 9.24264 15.9148 9.78797 16.3512L14.9412 20.4741L22.814 9.78952C23.0722 9.40213 23.5224 9.18795 23.9858 9.23201C24.4492 9.27608 24.851 9.57126 25.0315 10.0004C25.212 10.4295 25.1421 10.9231 24.8495 11.2852Z" fill="#E35F00"/>
</svg>
