<svg width="16" height="17" viewBox="0 0 16 17" fill="none" xmlns="http://www.w3.org/2000/svg">
<path d="M13.069 5.65722L8.38399 10.2682C8.28177 10.3694 8.14378 10.4261 7.99999 10.4261C7.8562 10.4261 7.71821 10.3694 7.61599 10.2682L2.92999 5.65822C2.82713 5.55715 2.6887 5.50051 2.54449 5.50051C2.40028 5.50051 2.26185 5.55715 2.15899 5.65822C2.10834 5.7076 2.06809 5.76662 2.04061 5.83179C2.01312 5.89697 1.99896 5.96699 1.99896 6.03772C1.99896 6.10846 2.01312 6.17848 2.04061 6.24365C2.06809 6.30883 2.10834 6.36785 2.15899 6.41722L6.84299 11.0272C7.15151 11.3302 7.56661 11.4999 7.99899 11.4999C8.43137 11.4999 8.84647 11.3302 9.15499 11.0272L13.839 6.41722C13.8898 6.36783 13.9302 6.30875 13.9577 6.24348C13.9853 6.17822 13.9995 6.10808 13.9995 6.03722C13.9995 5.96637 13.9853 5.89623 13.9577 5.83096C13.9302 5.76569 13.8898 5.70662 13.839 5.65722C13.7361 5.55615 13.5977 5.49951 13.4535 5.49951C13.3093 5.49951 13.1708 5.55615 13.068 5.65722" fill="#A2A2A2"/>
</svg>
