<svg width="16" height="17" viewBox="0 0 16 17" fill="none" xmlns="http://www.w3.org/2000/svg">
<path fill-rule="evenodd" clip-rule="evenodd" d="M14 0.806152H2C0.897 0.806152 0 1.70315 0 2.80615V14.8062C0 15.9092 0.897 16.8062 2 16.8062H8V11.3062H6V8.80615H8V6.80615C8 6.0105 8.31607 5.24744 8.87868 4.68483C9.44129 4.12222 10.2044 3.80615 11 3.80615H13V6.30615H12C11.448 6.30615 11 6.25415 11 6.80615V8.80615H13.5L12.5 11.3062H11V16.8062H14C15.103 16.8062 16 15.9092 16 14.8062V2.80615C16 1.70315 15.103 0.806152 14 0.806152Z" fill="white"/>
</svg>
