<svg width="99" height="80" viewBox="0 0 99 80" fill="none" xmlns="http://www.w3.org/2000/svg">
<path d="M44.0799 4.69165C38.7041 11.0516 31.6354 23.7053 44.7743 36.9789C46.9504 39.1775 50.5375 39.0612 52.5475 36.7101C57.3566 31.0859 63.635 19.5383 52.2704 4.8903C50.2177 2.24377 46.2425 2.13356 44.0799 4.69165Z" stroke="#E35F00" stroke-width="4.05" stroke-miterlimit="10" stroke-linecap="round" stroke-linejoin="round"/>
<path d="M48.3274 18.6762V68.4841" stroke="#E35F00" stroke-width="4.05" stroke-miterlimit="10" stroke-linecap="round" stroke-linejoin="round"/>
<path d="M48.3518 61.0515C48.3518 61.0515 49.2296 43.3701 76.3841 43.3701" stroke="#E35F00" stroke-width="4.05" stroke-miterlimit="10" stroke-linecap="round" stroke-linejoin="round"/>
<path d="M48.3196 62.4391C48.3196 62.4391 48.6903 44.5734 21.5354 44.5734" stroke="#E35F00" stroke-width="4.05" stroke-miterlimit="10" stroke-linecap="round" stroke-linejoin="round"/>
<path d="M85.5853 77.1463C85.7151 72.1796 82.399 68.9314 77.9668 68.9314C73.1473 68.9314 70.8375 72.4889 70.675 76.4101C70.4742 71.862 67.274 68.9314 63.0652 68.9314C58.2457 68.9314 55.9359 72.4889 55.7734 76.4101C55.5726 71.862 52.3723 68.9314 48.1636 68.9314C43.3441 68.9314 41.0343 72.4889 40.8718 76.4101C40.671 71.8616 37.4712 68.9314 33.262 68.9314C28.4425 68.9314 26.1327 72.4889 25.9702 76.4101C25.7694 71.8616 22.5692 68.9314 18.3604 68.9314C13.2403 68.9314 10.9523 72.9459 11.0625 77.1463" stroke="#E35F00" stroke-width="4.05" stroke-miterlimit="10" stroke-linecap="round" stroke-linejoin="round"/>
<path d="M94.4641 41.9735C88.3956 36.271 76.131 28.547 62.1852 40.9703C59.8754 43.0282 59.8027 46.6158 62.0449 48.7469C67.4086 53.8448 78.6102 60.7214 93.8355 50.1427C96.5861 48.2315 96.905 44.2672 94.4641 41.9735Z" stroke="#E35F00" stroke-width="4.05" stroke-miterlimit="10" stroke-linecap="round" stroke-linejoin="round"/>
<path d="M4.63379 37.5361C11.7308 33.1797 25.305 28.0979 36.4479 43.0862C38.2937 45.5689 37.6385 49.0971 35.0111 50.7304C28.7266 54.6372 16.3652 59.1047 3.59609 45.6634C1.28936 43.2347 1.77903 39.2882 4.63379 37.5361Z" stroke="#E35F00" stroke-width="4.05" stroke-miterlimit="10" stroke-linecap="round" stroke-linejoin="round"/>
</svg>
