<svg width="76" height="70" viewBox="0 0 76 70" fill="none" xmlns="http://www.w3.org/2000/svg">
<path d="M41.7616 59.7211C41.7682 59.7232 41.6945 59.7004 41.5496 59.6557C41.4736 59.9327 41.6143 60.1989 41.6143 60.1989M41.7616 59.7211L16.9691 52.5978L29.3777 56.4248L37.8284 59.0312L40.5932 59.884L41.3578 60.1198L41.5541 60.1804L41.6017 60.1951L41.6124 60.1983L41.6143 60.1989M41.7616 59.7211L41.9088 59.2433L41.9089 59.2433L41.6143 60.199C41.6143 60.1989 41.6143 60.1989 41.6143 60.1989M41.7616 59.7211L41.6143 60.1989M42.6761 57.8041C45.0706 58.6893 46.6152 60.9668 46.6152 63.4444C46.6152 64.7227 46.189 65.7584 45.7604 66.482C45.6832 66.6123 45.6058 66.7328 45.5305 66.8432H61.6912C65.7112 66.8432 68.9829 63.5713 68.9829 59.5514C68.9829 54.696 64.2781 51.1519 59.5544 52.5976L42.6761 57.8041ZM42.6761 57.8041L59.5534 52.5979L42.6761 57.8041ZM26.1737 12.5496C26.1737 17.4763 29.1663 21.7039 33.4211 23.543C32.7815 24.1354 32.0753 24.3265 31.2652 24.3757C30.7903 24.4046 30.2918 24.3837 29.7409 24.3605C29.685 24.3582 29.6285 24.3558 29.5714 24.3534C28.9693 24.3287 28.3164 24.3079 27.6347 24.3646C21.0572 24.3761 15.7106 29.7298 15.7106 36.3096V49.7187C10.0863 49.1966 4.94184 53.5894 4.94184 59.5593C4.94184 65.012 9.37729 69.4472 14.8297 69.4472H61.6912C67.1481 69.4472 71.5869 65.0082 71.5869 59.5514C71.5869 53.6033 66.4501 49.1959 60.8119 49.7192V36.3096C60.8119 29.7322 55.4693 24.3801 48.8948 24.3646C48.3043 24.299 47.6937 24.3225 47.1141 24.3516C47.049 24.3548 46.9842 24.3582 46.9198 24.3615C46.389 24.3889 45.8843 24.4149 45.3914 24.3899C44.5083 24.3451 43.7131 24.1395 43.0345 23.4816C47.2061 21.6145 50.1287 17.4387 50.1406 12.5792C50.1568 12.1334 50.1245 11.7091 50.0889 11.3988C50.0708 11.2416 50.0517 11.1114 50.0369 11.0196C50.0295 10.9737 50.0232 10.9372 50.0186 10.9116L50.0135 10.8844C49.1896 4.96906 44.1115 0.536682 38.1578 0.536682C38.145 0.536682 38.134 0.53715 38.126 0.537616C31.6288 0.555376 26.1737 5.85154 26.1737 12.5496ZM41.6153 60.1993C42.9352 60.6067 44.0104 61.8578 44.0104 63.4455C44.0104 65.3301 42.4742 66.8432 40.6123 66.8432H14.83C10.8142 66.8432 7.54614 63.5751 7.54614 59.5593C7.54614 54.6663 12.2709 51.1552 16.9689 52.5977L41.6153 60.1993ZM52.5846 52.022L52.3716 52.0877V38.3173C52.3716 37.5982 51.7883 37.0153 51.0696 37.0153C50.3505 37.0153 49.7676 37.5986 49.7676 38.3173V52.8911L38.2631 56.4398L26.7556 52.8904V38.3176C26.7556 37.5985 26.1722 37.0155 25.4535 37.0155C24.7348 37.0155 24.1515 37.5988 24.1515 38.3176V52.087L18.3149 50.2865V36.3096C18.3149 31.1596 22.5056 26.9687 27.6562 26.9687H30.0728C30.8859 30.8593 34.3767 33.6255 38.28 33.6255C42.2049 33.6255 45.6446 30.8228 46.4504 26.9684H48.8665C54.0171 26.9686 58.2078 31.1594 58.2078 36.3096V50.2874L54.8152 51.3339L52.5846 52.022ZM35.9137 21.6465C31.9852 20.6766 29.0222 17.2338 28.7933 13.0694H47.5231C47.1957 19.251 41.0718 23.0606 35.926 21.6497L35.9261 21.6496L35.9137 21.6465ZM53.3817 9.41548L53.4311 9.65448L53.6499 9.76255C65.3614 15.546 72.7997 27.3994 72.7997 40.6222C72.7997 43.8281 72.3631 46.9818 71.5002 50.0265L71.4237 50.2963L71.6141 50.5023C72.0304 50.9527 72.4162 51.4309 72.7677 51.9348L73.3481 52.767L73.6544 51.7998C74.7956 48.1966 75.375 44.4426 75.375 40.6224C75.375 33.1259 73.1446 25.9047 68.9244 19.742C65.0485 14.0818 59.7428 9.64817 53.5252 6.85749L52.467 6.38252L52.8482 7.478C53.0664 8.10478 53.2445 8.75181 53.3817 9.41548ZM5.13683 50.5023L5.32719 50.2963L5.25071 50.0265C4.38755 46.9815 3.95026 43.8283 3.95026 40.6222C3.95026 27.5025 11.2849 15.7165 22.8497 9.88744L23.0677 9.77755L23.1151 9.53805C23.2463 8.87543 23.4225 8.22797 23.6365 7.59601L24.0083 6.49791L22.9545 6.98115C16.8403 9.78481 11.6222 14.1837 7.80167 19.7767C3.59723 25.9316 1.375 33.1407 1.375 40.622C1.375 44.4431 1.95459 48.1971 3.09602 51.8009L3.40244 52.7684L3.98284 51.9359C4.33437 51.4317 4.72032 50.9529 5.13683 50.5023ZM40.366 24.3335C41.1792 25.5521 42.4043 26.4332 43.8071 26.8002C43.1214 29.2395 40.8205 31.0216 38.28 31.0216C35.6955 31.0216 33.4015 29.2381 32.7152 26.7971C34.152 26.4213 35.343 25.5441 36.1387 24.3709C37.5334 24.6136 39.1001 24.5738 40.366 24.3335ZM38.1673 3.14098C42.4905 3.14544 46.3061 6.13256 47.2603 10.4653H29.0613C30.0257 6.21606 33.8312 3.14488 38.1524 3.1412C38.1579 3.1412 38.163 3.1411 38.1673 3.14098Z" fill="#E35F00" stroke="#E35F00"/>
</svg>
