<svg width="21" height="20" viewBox="0 0 21 20" fill="none" xmlns="http://www.w3.org/2000/svg">
<path d="M12.0837 9.99998L9.16699 11.6666V8.33331L12.0837 9.99998Z" fill="white" stroke="white" stroke-width="1.25" stroke-linecap="round" stroke-linejoin="round"/>
<path d="M2.08365 10.5891V9.40998C2.08365 6.99748 2.08365 5.79081 2.83782 5.01498C3.59282 4.23831 4.78115 4.20498 7.15698 4.13748C8.28198 4.10581 9.43198 4.08331 10.417 4.08331C11.4011 4.08331 12.5511 4.10581 13.677 4.13748C16.0528 4.20498 17.2411 4.23831 17.9953 5.01498C18.7503 5.79081 18.7503 6.99831 18.7503 9.40998V10.5891C18.7503 13.0025 18.7503 14.2083 17.9961 14.985C17.2411 15.7608 16.0536 15.795 13.677 15.8616C12.552 15.8941 11.402 15.9166 10.417 15.9166C9.33011 15.9134 8.24334 15.895 7.15698 15.8616C4.78115 15.795 3.59282 15.7616 2.83782 14.985C2.08365 14.2083 2.08365 13.0016 2.08365 10.59V10.5891Z" stroke="white" stroke-width="1.25"/>
<path d="M9.16699 8.17085V11.8358C9.16697 11.9004 9.18443 11.9637 9.21754 12.0191C9.25064 12.0745 9.29814 12.1199 9.35499 12.1505C9.41184 12.1811 9.47591 12.1957 9.54039 12.1927C9.60487 12.1898 9.66734 12.1694 9.72116 12.1338L12.4699 10.3171C12.519 10.2847 12.5594 10.2407 12.5874 10.1889C12.6154 10.1372 12.6302 10.0793 12.6304 10.0205C12.6307 9.96163 12.6164 9.90364 12.5888 9.85166C12.5613 9.79968 12.5213 9.75531 12.4724 9.72251L9.72324 7.87418C9.66951 7.83808 9.60698 7.81725 9.54233 7.81394C9.47769 7.81063 9.41335 7.82496 9.35622 7.85539C9.29909 7.88582 9.2513 7.93121 9.21797 7.9867C9.18464 8.04219 9.16702 8.1057 9.16699 8.17043V8.17085Z" stroke="white" stroke-linejoin="round"/>
</svg>
