<svg width="21" height="20" viewBox="0 0 21 20" fill="none" xmlns="http://www.w3.org/2000/svg">
<path d="M10.417 2.5C6.28199 2.5 2.91699 5.865 2.91699 10C2.91699 14.135 6.28199 17.5 10.417 17.5C14.552 17.5 17.917 14.135 17.917 10C17.917 5.865 14.552 2.5 10.417 2.5ZM10.417 3.75C13.8764 3.75 16.667 6.54063 16.667 10C16.6685 11.4962 16.132 12.9431 15.1553 14.0766C14.1787 15.2101 12.827 15.9547 11.347 16.1744V11.8225H13.127L13.4064 10.0144H11.347V9.02688C11.347 8.27688 11.5939 7.61 12.2957 7.61H13.4239V6.0325C13.2257 6.00563 12.8064 5.9475 12.0139 5.9475C10.3589 5.9475 9.38887 6.82125 9.38887 8.8125V10.0144H7.68762V11.8225H9.38887V16.1588C7.92934 15.9185 6.60277 15.1672 5.64617 14.039C4.68958 12.9108 4.1653 11.4792 4.16699 10C4.16699 6.54063 6.95762 3.75 10.417 3.75Z" fill="white"/>
</svg>
