<svg width="41" height="36" viewBox="0 0 41 36" fill="none" xmlns="http://www.w3.org/2000/svg">
<rect x="0.583008" y="0.738647" width="39.8339" height="34.5227" rx="9.41869" fill="white"/>
<path fill-rule="evenodd" clip-rule="evenodd" d="M31.7982 11.4736H35.7079L24.7456 28.7986L22.1392 24.2757L19.1495 28.7986L17.4629 26.4987L22.1392 19.1394L24.6689 23.0492L31.7982 11.4736Z" fill="#453122"/>
<path fill-rule="evenodd" clip-rule="evenodd" d="M23.8132 18.2271L28.5501 11.4759H24.964L23.4811 14.0215C22.5867 15.583 23.2557 16.921 23.8132 18.2271Z" fill="#453122"/>
<path fill-rule="evenodd" clip-rule="evenodd" d="M20.4156 18.0323L21.6241 16.2014C20.2521 10.6731 17.1435 7.00504 12.3591 7.20969C6.80856 7.58022 3.95104 13.462 5.9084 17.6541L11.6432 28.1397C12.125 28.94 13.0372 28.979 13.5189 28.2114L16.0346 23.3802L15.0621 21.4862L12.6653 26.4585L7.70005 17.0908C5.99917 13.8303 8.7066 9.43424 12.3591 9.15294C14.4993 8.86467 17.3284 10.9306 18.5038 14.0618L20.4156 18.0321V18.0323Z" fill="#453122"/>
<path d="M12.917 17.5186C14.0355 17.5186 14.9423 16.6118 14.9423 15.4932C14.9423 14.3747 14.0355 13.4679 12.917 13.4679C11.7984 13.4679 10.8916 14.3747 10.8916 15.4932C10.8916 16.6118 11.7984 17.5186 12.917 17.5186Z" fill="#453122"/>
</svg>
