<svg width="40" height="40" viewBox="0 0 40 40" fill="none" xmlns="http://www.w3.org/2000/svg">
<path d="M26.6051 21.5065L18.7871 29.3245C18.468 29.6436 18.3149 30.0159 18.3276 30.4414C18.3404 30.8668 18.5068 31.2391 18.827 31.5582C19.1461 31.8507 19.5184 32.0039 19.9439 32.0177C20.3693 32.0316 20.7416 31.8784 21.0607 31.5582L31.5911 21.0279C31.7506 20.8683 31.8639 20.6955 31.9309 20.5093C31.9979 20.3232 32.0303 20.1238 32.0282 19.911C32.0261 19.6983 31.9926 19.4989 31.9277 19.3127C31.8628 19.1266 31.7501 18.9537 31.5895 18.7942L21.0591 8.26384C20.7666 7.97133 20.4007 7.82507 19.9614 7.82507C19.5221 7.82507 19.1434 7.97133 18.8254 8.26384C18.5063 8.58294 18.3468 8.96214 18.3468 9.40143C18.3468 9.84073 18.5063 10.2194 18.8254 10.5374L26.6051 18.3155H8.77532C8.32326 18.3155 7.94407 18.4687 7.63773 18.775C7.33139 19.0814 7.17875 19.46 7.17982 19.911C7.18088 20.362 7.33405 20.7412 7.63932 21.0486C7.9446 21.356 8.32326 21.5087 8.77532 21.5065H26.6051Z" fill="white"/>
</svg>
