<svg width="60" height="60" viewBox="0 0 60 60" fill="none" xmlns="http://www.w3.org/2000/svg">
<path fill-rule="evenodd" clip-rule="evenodd" d="M29.719 0.56781C23.3989 0.56781 18.4474 0.56781 14.5826 1.08787C10.6302 1.61887 7.50987 2.73014 5.06014 5.17714C2.6104 7.62687 1.50186 10.7472 0.970861 14.7024C0.450806 18.5645 0.450806 23.5159 0.450806 29.836V30.148C0.450806 36.468 0.450806 41.4195 0.970861 45.2843C1.50186 49.2367 2.61314 52.3571 5.06014 54.8068C7.50987 57.2565 10.6302 58.3651 14.5854 58.8961C18.4474 59.4161 23.3989 59.4161 29.719 59.4161H30.031C36.351 59.4161 41.3025 59.4161 45.1673 58.8961C49.1197 58.3651 52.2401 57.2538 54.6898 54.8068C57.1395 52.3571 58.2481 49.2367 58.7791 45.2816C59.2991 41.4195 59.2991 36.468 59.2991 30.148V29.836C59.2991 23.5159 59.2991 18.5645 58.7791 14.6996C58.2481 10.7472 57.1368 7.62687 54.6898 5.17714C52.2401 2.72741 49.1197 1.61887 45.1646 1.08787C41.3025 0.56781 36.351 0.56781 30.031 0.56781H29.719ZM27.8221 4.67351C22.3643 4.67898 18.3051 4.72825 15.1328 5.15524C11.632 5.62603 9.52166 6.52381 7.96149 8.08124C6.40407 9.6414 5.50903 11.749 5.03824 15.2498C4.61398 18.4221 4.56198 22.4813 4.5565 27.9391H15.9539C14.972 26.7107 14.2662 25.2852 13.8846 23.7595C12.4093 17.8665 17.7495 12.5263 23.6425 14.0017C25.1682 14.3832 26.5937 15.089 27.8221 16.0709V4.67351ZM4.5565 32.0448C4.56198 37.5027 4.61125 41.5618 5.03824 44.7342C5.50903 48.235 6.4068 50.3453 7.96423 51.9055C9.5244 53.4629 11.632 54.3579 15.1328 54.8287C18.3051 55.253 22.3643 55.305 27.8221 55.3104V35.8056C26.7421 37.966 25.0817 39.7828 23.027 41.0524C20.9723 42.3219 18.6046 42.994 16.1893 42.9934C15.6449 42.9934 15.1227 42.7771 14.7377 42.3921C14.3527 42.0071 14.1365 41.485 14.1365 40.9405C14.1365 40.3961 14.3527 39.8739 14.7377 39.4889C15.1227 39.1039 15.6449 38.8877 16.1893 38.8877C18.192 38.8881 20.1362 38.2128 21.7074 36.9709C23.2785 35.7291 24.3847 33.9934 24.8469 32.0448H4.5565ZM31.9278 55.3104C37.3857 55.305 41.4448 55.2557 44.6172 54.8287C48.118 54.3579 50.2283 53.4601 51.7884 51.9027C53.3459 50.3425 54.2409 48.235 54.7117 44.7342C55.136 41.5618 55.188 37.5027 55.1934 32.0448H34.9031C35.3652 33.9934 36.4714 35.7291 38.0426 36.9709C39.6137 38.2128 41.558 38.8881 43.5606 38.8877C44.1051 38.8877 44.6272 39.1039 45.0122 39.4889C45.3972 39.8739 45.6135 40.3961 45.6135 40.9405C45.6135 41.485 45.3972 42.0071 45.0122 42.3921C44.6272 42.7771 44.1051 42.9934 43.5606 42.9934C41.1454 42.994 38.7776 42.3219 36.723 41.0524C34.6683 39.7828 33.0078 37.966 31.9278 35.8056V55.3104ZM55.1934 27.9391H43.796C44.7789 26.711 45.4856 25.2854 45.868 23.7595C47.3406 17.8665 42.0005 12.5263 36.1102 14.0017C34.5835 14.3829 33.157 15.0886 31.9278 16.0709V4.67351C37.3857 4.67898 41.4448 4.72825 44.6172 5.15524C48.118 5.62603 50.2283 6.52381 51.7884 8.08124C53.3459 9.6414 54.2409 11.749 54.7117 15.2498C55.136 18.4221 55.188 22.4813 55.1934 27.9391ZM31.9278 27.9391V24.5998C31.9325 23.0787 32.4439 21.6024 33.3812 20.4044C34.3186 19.2063 35.6284 18.3547 37.1037 17.9842C37.7639 17.8193 38.4556 17.8282 39.1113 18.0099C39.7671 18.1916 40.3646 18.54 40.8458 19.0212C41.327 19.5023 41.6753 20.0999 41.8571 20.7556C42.0388 21.4114 42.0476 22.103 41.8828 22.7632C41.5124 24.2376 40.6617 25.5468 39.4647 26.484C38.2678 27.4213 36.7928 27.9332 35.2726 27.9391H31.9278ZM27.8221 24.5916C27.8156 23.0719 27.3034 21.5975 26.3662 20.4011C25.429 19.2047 24.1202 18.3544 22.6462 17.9842C21.986 17.8193 21.2944 17.8282 20.6386 18.0099C19.9829 18.1916 19.3853 18.54 18.9042 19.0212C18.423 19.5023 18.0746 20.0999 17.8929 20.7556C17.7112 21.4114 17.7023 22.103 17.8672 22.7632C18.2375 24.2376 19.0883 25.5468 20.2852 26.484C21.4822 27.4213 22.9571 27.9332 24.4773 27.9391H27.8221V24.5916Z" fill="#E35F00"/>
</svg>
