<svg width="29" height="24" viewBox="0 0 29 24" fill="none" xmlns="http://www.w3.org/2000/svg">
<rect width="29" height="24" rx="12" fill="#004F84"/>
<path d="M21.125 19.5C19.3889 19.5 17.6736 19.1217 15.9792 18.365C14.2847 17.6083 12.7431 16.5353 11.3542 15.1458C9.96528 13.7564 8.8925 12.2147 8.13583 10.5208C7.37917 8.82694 7.00056 7.11167 7 5.375C7 5.125 7.08333 4.91667 7.25 4.75C7.41667 4.58333 7.625 4.5 7.875 4.5H11.25C11.4444 4.5 11.6181 4.56611 11.7708 4.69833C11.9236 4.83056 12.0139 4.98667 12.0417 5.16667L12.5833 8.08333C12.6111 8.30556 12.6042 8.49306 12.5625 8.64583C12.5208 8.79861 12.4444 8.93056 12.3333 9.04167L10.3125 11.0833C10.5903 11.5972 10.92 12.0936 11.3017 12.5725C11.6833 13.0514 12.1036 13.5133 12.5625 13.9583C12.9931 14.3889 13.4444 14.7883 13.9167 15.1567C14.3889 15.525 14.8889 15.8617 15.4167 16.1667L17.375 14.2083C17.5 14.0833 17.6633 13.9897 17.865 13.9275C18.0667 13.8653 18.2644 13.8478 18.4583 13.875L21.3333 14.4583C21.5278 14.5139 21.6875 14.6147 21.8125 14.7608C21.9375 14.9069 22 15.07 22 15.25V18.625C22 18.875 21.9167 19.0833 21.75 19.25C21.5833 19.4167 21.375 19.5 21.125 19.5ZM9.52083 9.5L10.8958 8.125L10.5417 6.16667H8.6875C8.75694 6.73611 8.85417 7.29861 8.97917 7.85417C9.10417 8.40972 9.28472 8.95833 9.52083 9.5ZM16.9792 16.9583C17.5208 17.1944 18.0731 17.3819 18.6358 17.5208C19.1986 17.6597 19.7644 17.75 20.3333 17.7917V15.9583L18.375 15.5625L16.9792 16.9583Z" fill="white"/>
</svg>
