<svg width="470" height="442" viewBox="0 0 470 442" fill="none" xmlns="http://www.w3.org/2000/svg">
<path d="M0.531921 36.9184V405.374C0.531921 425.599 16.924 442 37.1255 442H276.685C277.202 441.784 277.718 441.555 278.223 441.315C283.174 439.018 288.21 436.83 293.077 434.701C302.198 430.721 310.815 426.97 319.191 422.557L366.829 397.461C367.454 397.125 368.487 396.608 369.797 395.946C375.085 393.277 379.435 390.992 382.981 389.044V384.715C378.582 384.679 373.919 384.908 369.617 385.136C351.819 386.026 333.925 384.655 316.379 381.637C308.231 380.242 300.107 378.595 292.139 376.406C280.278 373.148 267.059 368.831 264.391 355.135C263.273 349.387 263.117 334.85 285.698 324.16C305.13 314.985 325.296 307.542 344.777 300.339C346.159 299.822 347.553 299.317 348.947 298.8C360.243 294.628 371.684 290.347 382.993 285.669C391.693 282.086 400.31 278.262 408.674 274.078C411.378 272.719 415.176 271.132 419.959 269.124C427.866 265.817 448.368 257.207 452.971 252.253C451.613 251.183 447.707 248.899 437.456 246.818C432.049 245.712 426.472 245.111 420.572 244.486C413.457 243.716 406.102 242.922 398.664 241.179C393.845 240.049 388.581 239.05 383.005 237.992C382.957 237.98 382.908 237.968 382.86 237.956C371.924 235.888 359.955 233.615 348.959 229.792C344.368 228.204 339.946 226.341 335.835 224.116C326.534 219.09 320.441 210.552 319.528 201.294C317.605 181.609 341.616 167.986 383.005 154.686C392.306 151.704 402.497 148.722 413.457 145.704C417.639 144.55 421.245 143.552 423.372 142.89L426.821 141.832C439.824 137.804 452.118 134.004 462.309 127.15C467.693 123.519 469.399 120.729 469.868 119.034C470.144 118.048 470.265 117.591 468.125 115.919C466.779 114.873 465.085 113.887 463.222 112.973H382.993V37.5557C382.993 16.9697 366.324 0.291748 345.762 0.291748H37.1255C16.924 0.291748 0.531921 16.6812 0.531921 36.9184Z" fill="#6BC288"/>
</svg>
