<svg width="777" height="532" viewBox="0 0 777 532" fill="none" xmlns="http://www.w3.org/2000/svg">
<path d="M689.12 141.03C668.62 154.57 645.53 161.47 621.42 166.04C612.44 167.75 603.32 169.13 594.15 170.42H0V59.41C0 26.73 26.5 0.220001 59.2 0.220001H445.17C444.83 1.48 444.58 2.77 444.37 4.08C440.44 29.81 464.21 51.19 487.46 62.86C529.24 83.84 577.27 91.7 621.42 106.63C645.72 114.83 668.85 125.19 689.12 141.03Z" fill="#5FACDF"/>
<path d="M561.23 437.05C560.75 452.82 574.85 462.14 587.57 469.37C598.81 475.77 610.08 482.07 621.42 488.31C648.7 503.34 676.24 517.92 704.03 532H59.2C26.5 532 0 505.49 0 472.8V321.75H627.03C646.81 329.71 666.74 337.29 686.79 344.51C717.74 355.64 749.51 366.16 776.38 385.17C775.83 385.38 775.27 385.59 774.72 385.8C726.29 403.5 673.08 399.43 621.42 403.05C617.75 403.31 614.09 403.6 610.44 403.95C596.13 405.31 581.31 407.64 570.38 417.92C565.02 422.94 561.44 429.71 561.23 437.05Z" fill="#5FACDF"/>
<path d="M627.03 321.75H0V170.42H594.15C564.35 174.6 533.95 177.73 505.86 187.5C490.69 192.77 474.6 201.9 470.8 217.52C464.96 241.5 490.72 260.33 512.9 271.14C548.5 288.47 584.71 304.61 621.42 319.49C623.29 320.25 625.16 321 627.03 321.75Z" fill="#004F84"/>
</svg>
