<svg width="644" height="441" viewBox="0 0 644 441" fill="none" xmlns="http://www.w3.org/2000/svg">
<g clip-path="url(#clip0_302_236)">
<g filter="url(#filter0_i_302_236)">
<path d="M472.88 346.3C468.432 350.458 465.467 356.082 465.29 362.157C464.903 375.242 476.586 382.961 487.125 388.956C496.455 394.257 505.786 399.478 515.196 404.651C537.805 417.124 560.639 429.21 583.683 440.876H49.0847C21.9802 440.876 0 418.896 0 391.792V49.0686C0 21.9802 21.9802 0 49.0847 0H369.07C368.796 1.04744 368.587 2.111 368.41 3.20678C365.154 24.5424 384.862 42.2683 404.135 51.937C438.765 69.3246 478.584 75.8509 515.196 88.2269C535.34 95.0272 554.516 103.616 571.323 116.75C554.322 127.965 535.178 133.686 515.196 137.473C507.752 138.891 500.194 140.035 492.588 141.115C467.884 144.579 442.681 147.174 419.396 155.263C406.81 159.63 393.468 167.204 390.325 180.16C385.475 200.045 406.843 215.644 425.229 224.604C454.735 238.978 484.756 252.353 515.196 264.697C516.743 265.325 518.29 265.954 519.837 266.566C536.242 273.173 552.759 279.458 569.39 285.436C595.044 294.67 621.391 303.388 643.661 319.148C643.21 319.325 642.743 319.502 642.291 319.663C602.134 334.344 558.029 330.976 515.196 333.973C512.151 334.182 509.121 334.424 506.092 334.714C494.232 335.842 481.936 337.776 472.88 346.3Z" fill="#004F84"/>
</g>
</g>
<defs>
<filter id="filter0_i_302_236" x="0" y="0" width="643.661" height="444.876" filterUnits="userSpaceOnUse" color-interpolation-filters="sRGB">
<feFlood flood-opacity="0" result="BackgroundImageFix"/>
<feBlend mode="normal" in="SourceGraphic" in2="BackgroundImageFix" result="shape"/>
<feColorMatrix in="SourceAlpha" type="matrix" values="0 0 0 0 0 0 0 0 0 0 0 0 0 0 0 0 0 0 127 0" result="hardAlpha"/>
<feOffset dy="4"/>
<feGaussianBlur stdDeviation="13"/>
<feComposite in2="hardAlpha" operator="arithmetic" k2="-1" k3="1"/>
<feColorMatrix type="matrix" values="0 0 0 0 0 0 0 0 0 0.0977444 0 0 0 0 0.1625 0 0 0 0.3 0"/>
<feBlend mode="normal" in2="shape" result="effect1_innerShadow_302_236"/>
</filter>
<clipPath id="clip0_302_236">
<rect width="643.661" height="440.876" fill="white"/>
</clipPath>
</defs>
</svg>
