<svg width="26" height="27" viewBox="0 0 26 27" fill="none" xmlns="http://www.w3.org/2000/svg">
<path d="M12.954 1.70847C12.954 1.70847 11.4439 3.36328 7.44097 4.12992C3.23709 4.93707 0.797651 2.87401 0.797651 2.87401C0.797651 2.87401 0.44602 6.97521 2.01894 13.0148C3.78024 19.7899 8.03121 23.0216 12.9572 25.8607C17.8832 23.0216 22.1341 19.7899 23.8954 13.0148C25.4652 6.97521 25.1167 2.87401 25.1167 2.87401C25.1167 2.87401 22.6773 4.93707 18.4734 4.12992C14.4705 3.36017 12.9603 1.70847 12.9603 1.70847H12.954Z" fill="#58D68D"/>
<g style="mix-blend-mode:screen">
<path d="M12.954 1.70847C12.954 1.70847 11.4439 3.36328 7.44097 4.12992C3.23709 4.93707 0.797651 2.87401 0.797651 2.87401C0.797651 2.87401 0.44602 6.97521 2.01894 13.0148C3.78024 19.7899 8.03121 23.0216 12.9572 25.8607C17.8832 23.0216 22.1341 19.7899 23.8954 13.0148C25.4652 6.97521 25.1167 2.87401 25.1167 2.87401C25.1167 2.87401 22.6773 4.93707 18.4734 4.12992C14.4705 3.36017 12.9603 1.70847 12.9603 1.70847H12.954Z" fill="url(#paint0_linear_246_844)"/>
</g>
<path d="M12.9534 26.6024L13.2768 26.4154C17.713 23.8569 22.6076 20.5161 24.5165 13.1769C26.0957 7.10299 25.7691 2.99556 25.7566 2.82104L25.6498 1.5807L24.6954 2.38786C24.6075 2.46265 22.4129 4.23589 18.5921 3.50353C14.8435 2.78364 13.4464 1.29399 13.4338 1.27841L12.9566 0.754852L12.4825 1.27529C12.4417 1.31581 10.9881 2.79922 7.32107 3.50353C3.50336 4.23589 1.30567 2.46265 1.21462 2.38786L0.263332 1.5994L0.156586 2.82415C0.140888 2.99556 -0.185625 7.103 1.39357 13.18C3.30243 20.5192 8.19701 23.8631 12.6332 26.4186L12.9566 26.6055L12.9534 26.6024ZM24.4976 4.01463C24.4945 5.59465 24.3249 8.78898 23.2669 12.8559C21.6877 18.9205 18.1494 22.0805 12.9534 25.119C7.75747 22.0805 4.21918 18.9205 2.63998 12.8559C1.58195 8.78898 1.41241 5.59465 1.40927 4.01463C2.57405 4.60986 4.68384 5.31417 7.56282 4.75945C10.5203 4.19226 12.2031 3.14514 12.9534 2.55926C13.7038 3.14514 15.3866 4.18914 18.3441 4.75945C21.2231 5.31417 23.3328 4.60674 24.4976 4.01463Z" fill="url(#paint1_linear_246_844)"/>
<path d="M12.9533 26.2846L13.1385 26.1786C17.5276 23.6481 22.3657 20.3447 24.2494 13.1083C25.8192 7.07807 25.4959 3.01426 25.4802 2.84597L25.4205 2.13543L24.8742 2.59666C24.8522 2.61536 22.5007 4.53507 18.5386 3.77155C14.7303 3.03919 13.239 1.47787 13.2264 1.46229L12.9533 1.16934L12.6833 1.46229C12.6676 1.47787 11.1794 3.04231 7.37116 3.77155C3.38705 4.53819 1.06064 2.61536 1.03552 2.59666L0.489237 2.13543L0.429583 2.84597C0.413885 3.01738 0.0905094 7.07807 1.66029 13.1083C3.54403 20.3447 8.3821 23.6481 12.7712 26.1786L12.9564 26.2846H12.9533ZM24.7706 3.5534C24.7957 4.92774 24.7141 8.38696 23.5336 12.9245C21.9168 19.1355 18.2874 22.3392 12.9533 25.4369C7.61918 22.3392 3.98671 19.1355 2.37297 12.9245C1.1925 8.38696 1.11087 4.92774 1.13598 3.5534C2.12181 4.1424 4.32578 5.10226 7.5093 4.49144C10.6897 3.88063 12.3474 2.72443 12.9533 2.21023C13.5592 2.72443 15.2169 3.88063 18.3973 4.49144C21.5808 5.10226 23.7848 4.13929 24.7706 3.5534Z" fill="url(#paint2_linear_246_844)"/>
<defs>
<linearGradient id="paint0_linear_246_844" x1="0.764085" y1="14.0048" x2="25.1497" y2="13.5644" gradientUnits="userSpaceOnUse">
<stop offset="0.173109" stop-color="#D9D9D9" stop-opacity="0"/>
<stop offset="0.51"/>
</linearGradient>
<linearGradient id="paint1_linear_246_844" x1="25.7911" y1="13.6786" x2="0.112632" y2="13.6786" gradientUnits="userSpaceOnUse">
<stop stop-color="#BABABA"/>
<stop offset="0.23" stop-color="#3D3D3D"/>
<stop offset="0.41" stop-color="#BABABA"/>
<stop offset="0.59" stop-color="#BABABA"/>
<stop offset="0.74" stop-color="#3D3D3D"/>
<stop offset="0.88" stop-color="#BABABA"/>
<stop offset="1" stop-color="#868686"/>
</linearGradient>
<linearGradient id="paint2_linear_246_844" x1="23.1349" y1="16.4741" x2="-0.0209791" y2="3.00612" gradientUnits="userSpaceOnUse">
<stop stop-color="white"/>
<stop offset="0.23" stop-color="#535353"/>
<stop offset="0.41" stop-color="white"/>
<stop offset="0.59" stop-color="white"/>
<stop offset="0.74" stop-color="#535353"/>
<stop offset="0.88" stop-color="white"/>
<stop offset="1" stop-color="#B8B8B8"/>
</linearGradient>
</defs>
</svg>
