<svg width="777" height="211" viewBox="0 0 777 211" fill="none" xmlns="http://www.w3.org/2000/svg">
<path d="M561.23 116.05C560.75 131.82 574.85 141.14 587.57 148.37C598.81 154.77 610.08 161.07 621.42 167.31C648.7 182.34 676.24 196.92 704.03 211H59.2C26.5 211 0 184.49 0 151.8V0.75H627.03C646.81 8.71 666.74 16.29 686.79 23.51C717.74 34.64 749.51 45.16 776.38 64.17C775.83 64.38 775.27 64.59 774.72 64.8C726.29 82.5 673.08 78.43 621.42 82.05C617.75 82.31 614.09 82.6 610.44 82.95C596.13 84.31 581.31 86.64 570.38 96.92C565.02 101.94 561.44 108.71 561.23 116.05Z" fill="#5FACDF"/>
</svg>
