<svg width="75" height="59" viewBox="0 0 75 59" fill="none" xmlns="http://www.w3.org/2000/svg">
<path fill-rule="evenodd" clip-rule="evenodd" d="M58.85 17.3496H66.1895L45.61 49.8737L40.7171 41.3829L35.1045 49.8737L31.9382 45.5562L40.7171 31.7405L45.466 39.0804L58.85 17.3496Z" fill="#0EAF4B"/>
<path fill-rule="evenodd" clip-rule="evenodd" d="M43.8592 30.028L52.7517 17.354H46.0197L43.2357 22.1329C41.5567 25.0643 42.8126 27.5761 43.8592 30.028Z" fill="black"/>
<path fill-rule="evenodd" clip-rule="evenodd" d="M37.4834 29.6621L39.752 26.225C37.1764 15.8468 31.3407 8.96071 22.3589 9.34489C11.9389 10.0405 6.57449 21.0823 10.249 28.9522L21.0149 48.6367C21.9195 50.1392 23.632 50.2123 24.5363 48.7713L29.259 39.7017L27.4332 36.1462L22.9338 45.4806L13.6125 27.8947C10.4194 21.7738 15.5021 13.521 22.3589 12.993C26.3767 12.4518 31.6879 16.3302 33.8943 22.2084L37.4834 29.6618V29.6621Z" fill="black"/>
<path d="M23.4062 28.6976C25.5061 28.6976 27.2084 26.9953 27.2084 24.8954C27.2084 22.7956 25.5061 21.0933 23.4062 21.0933C21.3063 21.0933 19.604 22.7956 19.604 24.8954C19.604 26.9953 21.3063 28.6976 23.4062 28.6976Z" fill="black"/>
</svg>
