<svg width="58" height="41" viewBox="0 0 58 41" fill="none" xmlns="http://www.w3.org/2000/svg">
<path fill-rule="evenodd" clip-rule="evenodd" d="M50.2088 8.24805H57.5484L36.9688 40.7721L32.076 32.2813L26.4634 40.7721L23.2971 36.4546L32.076 22.639L36.8249 29.9788L50.2088 8.24805Z" fill="#0EAF4B"/>
<path fill-rule="evenodd" clip-rule="evenodd" d="M35.218 20.9264L44.1105 8.25244H37.3785L34.5945 13.0313C32.9155 15.9627 34.1714 18.4746 35.218 20.9264Z" fill="white"/>
<path fill-rule="evenodd" clip-rule="evenodd" d="M28.8421 20.5606L31.1108 17.1234C28.5352 6.74526 22.6995 -0.140852 13.7176 0.243323C3.29767 0.938922 -2.06675 11.9808 1.60781 19.8506L12.3736 39.5351C13.2782 41.0377 14.9908 41.1107 15.895 39.6698L20.6178 30.6002L18.792 27.0446L14.2926 36.3791L4.97125 18.7932C1.7782 12.6722 6.86086 4.41947 13.7176 3.89139C17.7355 3.35023 23.0466 7.22867 25.2531 13.1068L28.8421 20.5602V20.5606Z" fill="white"/>
<path d="M14.765 19.5961C16.8648 19.5961 18.5671 17.8938 18.5671 15.7939C18.5671 13.694 16.8648 11.9917 14.765 11.9917C12.6651 11.9917 10.9628 13.694 10.9628 15.7939C10.9628 17.8938 12.6651 19.5961 14.765 19.5961Z" fill="white"/>
</svg>
