<svg width="64" height="192" viewBox="0 0 64 192" fill="none" xmlns="http://www.w3.org/2000/svg">
<path d="M-145.573 56.7325L-145.575 56.7378C-154.075 77.8986 -159.094 100.74 -156.315 123.073C-153.537 145.405 -142.154 167.092 -123.486 179.004C-114.992 184.418 -105.316 187.687 -95.2866 188.534C-85.2572 189.381 -75.1738 187.779 -65.9006 183.866C-56.6274 179.953 -48.4407 173.845 -42.0425 166.066C-35.6442 158.287 -31.2254 149.069 -29.165 139.201L-29.1646 139.199C-28.6565 136.776 -28.2561 134.262 -27.842 131.662C-27.7627 131.163 -27.6829 130.662 -27.6018 130.158C-27.1026 127.057 -26.5558 123.864 -25.7701 120.792C-24.2013 114.657 -21.6018 108.674 -16.1336 104.526L-16.1291 104.522C-11.0717 100.703 -4.71098 99.5101 0.751643 98.5166L-145.573 56.7325ZM-145.573 56.7325C-135.18 30.683 -117.514 8.10277 -93.2531 -5.88558C-67.1913 -20.9025 -42.2604 -31.2219 -12.6272 -24.1073C12.9818 -17.956 35.0559 0.170198 48.8484 22.8934C56.6867 35.8444 61.9748 50.5391 60.4924 65.0981L60.4912 65.1097C59.7493 72.7517 56.8645 80.1984 51.4323 84.9729C45.6082 90.0778 37.4239 91.7745 28.95 93.336L0.756058 98.5158L-145.573 56.7325Z" stroke="#659F20" stroke-width="5"/>
</svg>
