<svg width="179" height="509" viewBox="0 0 179 509" fill="none" xmlns="http://www.w3.org/2000/svg">
<path d="M-38.1904 67.6493L-102.655 148.342C-101.029 167.909 -98.4111 188.688 -95.2929 209.954L-0.644365 111.062C-12.2518 95.9486 -24.7875 81.4542 -38.1904 67.6493Z" fill="#64B900"/>
<path d="M35.0571 166.557L-78.9119 290.808C-73.5271 312.229 -66.9699 334.108 -59.2093 355.498L56.2292 216.453C50.7693 199.285 43.6849 182.59 35.0571 166.557Z" fill="#64B900"/>
<path d="M58.3316 224.709L-56.7318 363.337C-49.1383 383.671 -40.1375 403.538 -29.7842 422.817L67.686 296.326C67.7877 290.12 67.4672 284.188 67.2797 277.359C66.1229 259.586 63.1268 241.957 58.3316 224.709Z" fill="#64B900"/>
<path d="M67.2171 307.402L-26.4469 429.635C-18.9648 442.825 -10.6101 455.581 -1.42955 467.833C38.9131 422.107 62.8894 366.074 67.2171 307.402Z" fill="#64B900"/>
<path d="M3.00505 116.229L-94.4259 218.079C-93.7694 221.651 -85.9464 264.604 -81.5542 283.25L31.297 160.012C22.8988 144.875 13.4487 130.251 3.00505 116.229Z" fill="#64B900"/>
</svg>
