<svg width="25" height="17" viewBox="0 0 25 17" fill="none" xmlns="http://www.w3.org/2000/svg">
<path d="M0.680572 9.2889C0.445501 9.04435 0.314209 8.71831 0.314209 8.3791C0.314209 8.0399 0.445501 7.71385 0.680572 7.46931L7.3931 0.494215C8.21231 -0.357815 9.65117 0.22246 9.65117 1.40401V5.42522C9.65117 5.51227 9.68575 5.59575 9.7473 5.6573C9.80885 5.71885 9.89233 5.75343 9.97938 5.75343L22.7795 5.75343C23.1277 5.75343 23.4616 5.89175 23.7078 6.13795C23.954 6.38416 24.0924 6.71808 24.0924 7.06627V9.69194C24.0924 10.0401 23.954 10.374 23.7078 10.6203C23.4616 10.8665 23.1277 11.0048 22.7795 11.0048L9.97938 11.0048C9.89233 11.0048 9.80885 11.0394 9.7473 11.1009C9.68575 11.1625 9.65117 11.2459 9.65117 11.333L9.65117 15.3542C9.65117 16.5357 8.21231 17.116 7.3931 16.264L0.680572 9.2889Z" fill="#659F20"/>
<path d="M0.680572 9.2889C0.445501 9.04435 0.314209 8.71831 0.314209 8.3791C0.314209 8.0399 0.445501 7.71385 0.680572 7.46931L7.3931 0.494215C8.21231 -0.357815 9.65117 0.22246 9.65117 1.40401V5.42522C9.65117 5.51227 9.68575 5.59575 9.7473 5.6573C9.80885 5.71885 9.89233 5.75343 9.97938 5.75343L22.7795 5.75343C23.1277 5.75343 23.4616 5.89175 23.7078 6.13795C23.954 6.38416 24.0924 6.71808 24.0924 7.06627V9.69194C24.0924 10.0401 23.954 10.374 23.7078 10.6203C23.4616 10.8665 23.1277 11.0048 22.7795 11.0048L9.97938 11.0048C9.89233 11.0048 9.80885 11.0394 9.7473 11.1009C9.68575 11.1625 9.65117 11.2459 9.65117 11.333L9.65117 15.3542C9.65117 16.5357 8.21231 17.116 7.3931 16.264L0.680572 9.2889Z" stroke="white"/>
</svg>
