<svg width="32" height="23" viewBox="0 0 32 23" fill="none" xmlns="http://www.w3.org/2000/svg">
<path fill-rule="evenodd" clip-rule="evenodd" d="M27.2981 4.73499H31.2077L20.2454 22.0599L17.6391 17.537L14.6493 22.0599L12.9627 19.7601L17.6391 12.4008L20.1687 16.3106L27.2981 4.73499Z" fill="white"/>
<path fill-rule="evenodd" clip-rule="evenodd" d="M19.3131 11.4884L24.0499 4.73718H20.4639L18.9809 7.28281C18.0866 8.84431 18.7556 10.1823 19.3131 11.4884Z" fill="white"/>
<path fill-rule="evenodd" clip-rule="evenodd" d="M15.9155 11.2936L17.124 9.46274C15.752 3.9345 12.6434 0.266396 7.85894 0.471038C2.30844 0.841571 -0.549083 6.72335 1.40828 10.9155L7.14303 21.401C7.6249 22.2014 8.53712 22.2403 9.01881 21.4727L11.5345 16.6415L10.562 14.7476L8.16523 19.7199L3.19992 10.3522C1.49904 7.09167 4.20648 2.69559 7.85894 2.41429C9.99919 2.12603 12.8283 4.192 14.0037 7.32317L15.9155 11.2935V11.2936Z" fill="white"/>
<path d="M8.41677 10.7799C9.53534 10.7799 10.4421 9.87317 10.4421 8.7546C10.4421 7.63603 9.53534 6.72925 8.41677 6.72925C7.2982 6.72925 6.39142 7.63603 6.39142 8.7546C6.39142 9.87317 7.2982 10.7799 8.41677 10.7799Z" fill="white"/>
</svg>
