<svg width="62" height="54" viewBox="0 0 62 54" fill="none" xmlns="http://www.w3.org/2000/svg">
<path d="M62 35.2588C62 27.0239 60.603 19.7945 57.8089 13.5705C54.9184 7.34643 50.5346 2.98961 44.6573 0.5C42.4413 2.70235 40.5144 4.52168 38.8765 5.95799C37.1422 7.29855 35.2634 8.49548 33.2401 9.54878C38.1538 11.3681 41.7669 13.5226 44.0793 16.0122C46.2953 18.5018 47.7405 21.4223 48.4149 24.7737H33.8182V53.5H61.8555L62 35.2588ZM28.7599 35.2588C28.7599 27.0239 27.3629 19.7945 24.5688 13.5705C21.6783 7.34643 17.2945 2.98961 11.4172 0.5C9.20124 2.70235 7.27428 4.52168 5.63636 5.95799C3.9021 7.29855 2.02331 8.49548 0 9.54878C4.91375 11.3681 8.52681 13.5226 10.8392 16.0122C13.0552 18.5018 14.5004 21.4223 15.1748 24.7737H2.02331V53.5H28.6154L28.7599 35.2588Z" fill="#659F20"/>
</svg>
