<svg width="25" height="17" viewBox="0 0 25 17" fill="none" xmlns="http://www.w3.org/2000/svg">
<path d="M24.3197 9.2889C24.5547 9.04435 24.686 8.71831 24.686 8.3791C24.686 8.0399 24.5547 7.71385 24.3197 7.46931L17.6071 0.494215C16.7879 -0.357815 15.3491 0.22246 15.3491 1.40401V5.42522C15.3491 5.51227 15.3145 5.59575 15.2529 5.6573C15.1914 5.71885 15.1079 5.75343 15.0209 5.75343L2.22072 5.75343C1.87254 5.75343 1.53861 5.89175 1.29241 6.13795C1.0462 6.38416 0.907888 6.71808 0.907888 7.06627V9.69194C0.907888 10.0401 1.0462 10.374 1.29241 10.6203C1.53861 10.8665 1.87254 11.0048 2.22072 11.0048H15.0209C15.1079 11.0048 15.1914 11.0394 15.2529 11.1009C15.3145 11.1625 15.3491 11.2459 15.3491 11.333V15.3542C15.3491 16.5357 16.7879 17.116 17.6071 16.264L24.3197 9.2889Z" fill="#659F20"/>
<path d="M24.3197 9.2889C24.5547 9.04435 24.686 8.71831 24.686 8.3791C24.686 8.0399 24.5547 7.71385 24.3197 7.46931L17.6071 0.494215C16.7879 -0.357815 15.3491 0.22246 15.3491 1.40401V5.42522C15.3491 5.51227 15.3145 5.59575 15.2529 5.6573C15.1914 5.71885 15.1079 5.75343 15.0209 5.75343L2.22072 5.75343C1.87254 5.75343 1.53861 5.89175 1.29241 6.13795C1.0462 6.38416 0.907888 6.71808 0.907888 7.06627V9.69194C0.907888 10.0401 1.0462 10.374 1.29241 10.6203C1.53861 10.8665 1.87254 11.0048 2.22072 11.0048H15.0209C15.1079 11.0048 15.1914 11.0394 15.2529 11.1009C15.3145 11.1625 15.3491 11.2459 15.3491 11.333V15.3542C15.3491 16.5357 16.7879 17.116 17.6071 16.264L24.3197 9.2889Z" stroke="white"/>
</svg>
