<svg width="162" height="521" viewBox="0 0 162 521" fill="none" xmlns="http://www.w3.org/2000/svg">
<path d="M223.3 147.042L190.423 81.7266C178.06 98.9553 165.304 118.189 153.191 138.558L219.059 208.988C219.929 187.546 221.455 166.708 223.3 147.042Z" fill="#64B900"/>
<path d="M218.746 218.451L149.886 144.661C141.299 159.354 133.278 174.586 125.853 189.977L219.22 283.11C218.448 264.794 218.679 222.305 218.746 218.451Z" fill="#64B900"/>
<path d="M219.795 293.077L122.767 196.509C114.838 213.757 108.221 231.486 102.963 249.57L226.351 358.335C223.176 336.14 221.122 314.348 219.795 293.077Z" fill="#64B900"/>
<path d="M228.405 368.284L101.396 256.382C94.8243 279.995 92.3295 304.402 94.0022 328.714L243.04 428.711C236.862 408.854 231.975 388.676 228.405 368.284Z" fill="#64B900"/>
<path d="M246.266 438.833L94.9574 337.205C96.2365 346.757 98.4982 356.175 101.712 365.333C121.585 419.967 175.268 458.506 262.719 478.768C256.406 465.757 250.913 452.423 246.266 438.833Z" fill="#64B900"/>
</svg>
