<svg width="34" height="33" viewBox="0 0 34 33" fill="none" xmlns="http://www.w3.org/2000/svg">
<path d="M17.4505 1.06024L21.5333 11.8609L33.0669 12.4068C33.1651 12.4104 33.26 12.4439 33.3386 12.5029C33.4172 12.562 33.4759 12.6437 33.5068 12.737C33.5376 12.8304 33.5391 12.931 33.5112 13.0252C33.4832 13.1195 33.427 13.2029 33.3502 13.2644L24.3402 20.4856L27.3851 31.6234C27.411 31.7178 27.4075 31.8178 27.3751 31.9102C27.3427 32.0026 27.2829 32.0829 27.2037 32.1404C27.1245 32.1979 27.0297 32.23 26.9319 32.2323C26.834 32.2346 26.7378 32.207 26.656 32.1532L17 25.816L7.34776 32.1532C7.26597 32.207 7.16974 32.2346 7.07189 32.2323C6.97404 32.23 6.8792 32.1979 6.80002 32.1404C6.72084 32.0829 6.66107 32.0026 6.62867 31.9102C6.59627 31.8178 6.59277 31.7178 6.61865 31.6234L9.66354 20.4856L0.653537 13.2644C0.576735 13.2029 0.520567 13.1195 0.492579 13.0252C0.464591 12.931 0.466124 12.8304 0.496972 12.737C0.527821 12.6437 0.586506 12.562 0.665143 12.5029C0.743781 12.4439 0.838603 12.4104 0.93687 12.4068L12.4666 11.8609L16.5495 1.06024C16.5841 0.968762 16.6457 0.889987 16.7262 0.834394C16.8067 0.7788 16.9022 0.749023 17 0.749023C17.0978 0.749023 17.1933 0.7788 17.2738 0.834394C17.3542 0.889987 17.4159 0.968762 17.4505 1.06024Z" fill="#F39E02"/>
</svg>
